<mxfile host="app.diagrams.net" modified="2024-12-06T08:01:55.394Z" agent="Mozilla/5.0 (Windows NT 10.0; Win64; x64) AppleWebKit/537.36 (KHTML, like Gecko) Chrome/133.0.0.0 Safari/537.36" version="24.3.0" etag="bcE1RlVEsVGKQ6hdSoYA" type="github">
  <diagram name="第 1 页" id="bEVbO0A4ic58VWMceuYk">
    <mxGraphModel>
      <root>
        <mxCell id="0" />
        <mxCell id="1" parent="0" />
      </root>
    </mxGraphModel>
  </diagram>
</mxfile>
